# xmcd
#
# Track frame offsets: 
#        187
#        19637
#        40090
#        58440
#        79532
#        101675
#        122250
#        146190
#        174282
#        194992
#
# Disc length: 2847 seconds
#
# Revision: 0
# Processed by: cddbd v1.5.2PL0 Copyright (c) Steve Scherf et al.
# Submitted via: ExactAudioCopy v0.99pb4
#
DISCID=870b1d0a
DTITLE=Giao Linh - The Best Of GL
DYEAR=1991
DGENRE=Soul
TTITLE0=Chuyen Xe Lam Chieu
TTITLE1=Truoc Gio Tam Biet
TTITLE2=Ve Goi Tieng He
TTITLE3=Xin Thoi Gian Qua Mau
TTITLE4=La Thu Do Thi
TTITLE5=Nguoi Yeu Co Don
TTITLE6=Dem Tam Giao
TTITLE7=Do Ai
TTITLE8=Chuyen Do Khong Em
TTITLE9=Nguoi Xa Toi
EXTD=
EXTT0=
EXTT1=
EXTT2=
EXTT3=
EXTT4=
EXTT5=
EXTT6=
EXTT7=
EXTT8=
EXTT9=
PLAYORDER=
